# AST/ASF file generated using VICON BodyLanguage
# -----------------------------------------------
:version 1.10
:name VICON
:units
  mass 1.0
  length 0.45
  angle deg
:documentation
   .ast/.asf automatically generated from VICON data using
   VICON BodyBuilder and BodyLanguage model FoxedUp or BRILLIANT.MOD
:root
   order TX TY TZ RX RY RZ
   axis XYZ
   position 0 0 0  
   orientation 0 0 0 
:bonedata
  begin
     id 1 
     name lhipjoint
     direction 0.645893 -0.654526 0.392961 
     length 2.38111 
     axis 0 0 0  XYZ
  end
  begin
     id 2 
     name lfemur
     direction 0.34202 -0.939693 0  
     length 6.6822  
     axis 0 0 20  XYZ
    dof rx ry rz
    limits (-160.0 20.0)
           (-70.0 70.0)
           (-60.0 70.0)
  end
  begin
     id 3 
     name ltibia
     direction 0.34202 -0.939693 0   
     length 6.93904   
     axis 0 0 20   XYZ
    dof rx
    limits (-10.0 170.0)
  end
  begin
     id 4 
     name lfoot
     direction 0.0694967 -0.190941 0.979138   
     length 2.13616   
     axis -90 7.62852e-016 20   XYZ
    dof rx rz
    limits (-45.0 90.0)
           (-70.0 20.0)
  end
  begin
     id 5 
     name ltoes
     direction 1.535e-011 -4.2202e-011 1   
     length 1.07536   
     axis -90 7.62852e-016 20   XYZ
    dof rx
    limits (-90.0 20.0)
  end
  begin
     id 6 
     name rhipjoint
     direction -0.700219 -0.612087 0.367481   
     length 2.54621  
     axis 0 0 0  XYZ 
  end
  begin
     id 7 
     name rfemur
     direction -0.34202 -0.939693 0   
     length 6.55353   
     axis 0 0 -20   XYZ
    dof rx ry rz
    limits (-160.0 20.0)
           (-70.0 70.0)
           (-70.0 60.0)
  end
  begin
     id 8 
     name rtibia
     direction -0.34202 -0.939693 0   
     length 6.8736   
     axis 0 0 -20   XYZ
    dof rx
    limits (-10.0 170.0)
 end
 begin
     id 9 
     name rfoot
     direction -0.0679995 -0.186827 0.980037   
     length 2.1218  
     axis -90 -7.62852e-016 -20   XYZ
    dof rx rz
    limits (-45.0 90.0)
           (-20.0 70.0)
  end
  begin
     id 10 
     name rtoes
     direction -1.53589e-011 -4.21772e-011 1   
     length 1.06864   
     axis -90 -7.62852e-016 -20   XYZ
    dof rx
    limits (-90.0 20.0)
  end
  begin
     id 11 
     name lowerback
     direction -0.0416607 0.996347 -0.0745409   
     length 2.12205   
     axis 0 0 0   XYZ
    dof rx ry rz
    limits (-20.0 45.0)
           (-30.0 30.0)
           (-30.0 30.0)
  end
  begin
     id 12 
     name upperback
     direction -0.000153993 0.999276 -0.0380568   
     length 2.12759   
     axis 0 0 0   XYZ
    dof rx ry rz
    limits (-20.0 45.0)
           (-30.0 30.0)
           (-30.0 30.0)
  end
  begin
     id 13 
     name thorax
     direction 0.0187671 0.999821 -0.00241421   
     length 2.13704   
     axis 0 0 0   XYZ
    dof rx ry rz
    limits (-20.0 45.0)
           (-30.0 30.0)
           (-30.0 30.0)
  end
  begin
     id 14 
     name lowerneck
     direction 0.0268157 0.964865 0.261374   
     length 1.65253   
     axis 0 0 0   XYZ
    dof rx ry rz
    limits (-20.0 45.0)
           (-30.0 30.0)
           (-30.0 30.0)
  end
  begin
     id 15 
     name upperneck
     direction 0.00263774 0.939908 -0.341418   
     length 1.72375   
     axis 0 0 0   XYZ
    dof rx ry rz
    limits (-20.0 45.0)
           (-30.0 30.0)
           (-30.0 30.0)
  end
  begin
     id 16
     name head
     direction -0.00526001 0.989001 -0.147818  
     length 1.74878  
     axis 0 0 0   XYZ
    dof rx ry rz
    limits (-20.0 45.0)
           (-30.0 30.0)
           (-30.0 30.0)
  end
  begin
     id 17 
     name lclavicle
     direction 0.881214 0.461162 -0.103884  
     length 3.25108  
     axis 0 0 0   XYZ
    dof ry rz
    limits (-20.0 10.0)
           (0.0 20.0)
  end
  begin
     id 18 
     name lhumerus
     direction 1 -4.4899e-011 3.38092e-027   
     length 4.87408   
     axis 180 -30 -90   XYZ
    dof rx ry rz
    limits (-60.0 90.0)
           (-90.0 90.0)
           (-90.0 90.0)
  end
  begin
     id 19
     name lradius
     direction 1 -4.48931e-011 9.96288e-027   
     length 2.76729   
     axis 180 -30 -90   XYZ
    dof rx
    limits (-10.0 170.0)
  end
  begin
     id 20
     name lwrist
     direction 1 -4.4896e-011 1.50617e-026   
     length 1.38364   
     axis -9.31234e-015 90 90   XYZ
    dof ry
    limits (-180.0 0.0)
 end
  begin
     id 21 
     name lhand
     direction 1 -4.49038e-011 3.01286e-026   
     length 0.98922   
     axis -1.92217e-014 90 90   XYZ
    dof rx rz
    limits (-90.0 90.0)
           (-45.0 45.0)
  end
  begin
     id 22 
     name lfingers
     direction 1 -4.49051e-011 6.02588e-026   
     length 0.797535   
     axis -3.84436e-014 90 90   XYZ
    dof rx
    limits (0.0 90.0)
  end
  begin
     id 23
     name lthumb
     direction 0.707107 -6.34901e-011 0.707107   
     length 1.14511   
     axis -90 45 2.19363e-014   XYZ
    dof rx rz
    limits (-45.0 45.0)
           (-45.0 45.0)
  end
  begin
     id 24 
     name rclavicle
     direction -0.893894 0.441652 -0.0767889   
     length 3.29361  
     axis 0 0 0   XYZ 
    dof ry rz
    limits (-10.0 20.0)
           (-20.0 0.0)
  end
  begin
     id 25 
     name rhumerus
     direction -1 -4.48945e-011 8.0491e-028  
     length 4.71404   
     axis 180 30 90   XYZ
    dof rx ry rz
    limits (-90.0 60.0)
           (-90.0 90.0)
           (-90.0 90.0)
  end
  begin
     id 26 
     name rradius
     direction -1 -4.48986e-011 9.27795e-027   
     length 2.83468   
     axis 180 30 90   XYZ
    dof rx
    limits (-10.0 170.0)
  end
  begin
     id 27 
     name rwrist
     direction -1 -4.49029e-011 1.5064e-026   
     length 1.41734   
     axis -9.31234e-015 -90 -90   XYZ
    dof ry
    limits (-180.0 0.0)
  end
  begin
     id 28
     name rhand
     direction -1 -4.48857e-011 3.01165e-026   
     length 0.868195   
     axis -1.92217e-014 -90 -90   XYZ
    dof rx rz
    limits (-90.0 90.0)
           (-45.0 45.0)
  end
  begin
     id 29
     name rfingers
     direction -1 -4.49048e-011 6.02585e-026   
     length 0.699961   
     axis -3.84436e-014 -90 -90   XYZ
    dof rx
    limits (0.0 90.0)
  end
  begin
     id 30
     name rthumb
     direction -0.707107 -6.34854e-011 0.707107   
     length 1.00501   
     axis -90 -45 -2.19363e-014   XYZ
    dof rx rz
    limits (-45.0 45.0)
           (-45.0 45.0)
  end
:hierarchy
  begin
    root lhipjoint rhipjoint lowerback
    lhipjoint lfemur
    lfemur ltibia
    ltibia lfoot
    lfoot ltoes
    rhipjoint rfemur
    rfemur rtibia
    rtibia rfoot
    rfoot rtoes
    lowerback upperback
    upperback thorax
    thorax lowerneck lclavicle rclavicle
    lowerneck upperneck
    upperneck head
    lclavicle lhumerus
    lhumerus lradius
    lradius lwrist
    lwrist lhand lthumb
    lhand lfingers
    rclavicle rhumerus
    rhumerus rradius
    rradius rwrist
    rwrist rhand rthumb
    rhand rfingers
  end

#!OML:ASF H:\ManfredObstacles\Project 1\Capture day 2\Session 1\male.ASF
:FULLY-SPECIFIED
:DEGREES
17
root 1.23814 15.5264 19.616 -172.775 -0.82959 173.534
lowerback 1.12503 -0.799874 -9.33187
upperback 1.102 -1.43233 -3.47328
thorax 0.630946 -0.898798 1.63308
lowerneck -36.1238 -1.8073 1.46964
upperneck 38.0333 -3.87055 3.53188
head 21.6883 -0.0300938 0.758069
rclavicle -5.96354e-016 2.06736e-014
rhumerus -66.1675 5.71067 -89.5736
rradius 78.7271
rwrist 7.77668
rhand -15.8764 -2.03993
rfingers 7.12502
rthumb 10.3194 -31.7668
lclavicle -5.96354e-016 2.06736e-014
lhumerus -48.3967 -23.864 100.301
lradius 101.468
lwrist -18.7137
lhand -14.822 2.74622
lfingers 7.12502
lthumb 11.3365 32.4198
rfemur -32.6324 -5.30384 12.0422
rtibia 92.0322
rfoot 7.25208 -15.9612
rtoes -17.2554
lfemur -12.8247 -4.17972 -30.5892
ltibia 39.3089
lfoot -0.487692 17.8453
ltoes -16.1916
18
root 1.24044 15.5923 19.3049 -172.591 -1.21175 173.537
lowerback 1.17505 -1.30037 -9.18924
upperback 1.01011 -2.09959 -3.38883
thorax 0.570755 -1.22047 1.6442
lowerneck -35.9476 -1.52506 1.7405
upperneck 38.1165 -3.40086 3.13224
head 21.6604 0.114309 0.631526
rclavicle 2.80286e-014 2.62396e-014
rhumerus -67.6081 5.62177 -88.807
rradius 78.5567
rwrist 7.88751
rhand -15.5749 -1.68409
rfingers 7.12502
rthumb 10.6102 -31.3962
lclavicle 2.80286e-014 2.62396e-014
lhumerus -47.3524 -24.1418 100.181
lradius 102.297
lwrist -18.5643
lhand -14.9621 2.83192
lfingers 7.12502
lthumb 11.2013 32.5129
rfemur -34.7112 -5.36473 12.2717
rtibia 91.2435
rfoot 6.5064 -16.1767
rtoes -17.6738
lfemur -11.3957 -4.52925 -30.5359
ltibia 38.3326
lfoot 0.362205 16.6408
ltoes -16.6333
19
root 1.24581 15.6696 18.9892 -172.399 -1.60158 173.521
lowerback 1.18983 -1.84396 -9.12918
upperback 0.91829 -2.81519 -3.23321
thorax 0.541931 -1.5662 1.77184
lowerneck -35.8346 -1.16407 2.03944
upperneck 38.2278 -2.78277 2.63649
head 21.6687 0.300888 0.490568
rclavicle -8.05078e-015 3.18055e-015
rhumerus -68.9834 5.76157 -88.0609
rradius 78.5065
rwrist 7.92337
rhand -15.3749 -1.39583
rfingers 7.12502
rthumb 10.8031 -31.098
lclavicle -8.05078e-015 3.18055e-015
lhumerus -46.364 -24.3479 100.038
lradius 103.129
lwrist -18.3741
lhand -15.0833 2.9782
lfingers 7.12502
lthumb 11.0844 32.6655
rfemur -36.6257 -5.36538 12.4973
rtibia 90.0547
rfoot 5.84825 -16.435
rtoes -18.1194
lfemur -9.93849 -4.86893 -30.4841
ltibia 37.2017
lfoot 1.40487 15.1854
ltoes -17.0072
20
root 1.25346 15.7563 18.6693 -172.186 -1.95805 173.495
lowerback 1.13061 -2.34544 -9.06387
upperback 0.855008 -3.46649 -3.10436
thorax 0.578332 -1.88447 1.86306
lowerneck -35.7956 -0.813478 2.38909
upperneck 38.3254 -2.21904 2.13686
head 21.6969 0.475031 0.322824
rclavicle -1.39149e-014 -2.54444e-014
rhumerus -70.243 5.8017 -87.3536
rradius 78.5252
rwrist 7.9203
rhand -15.1887 -1.12468
rfingers 7.12502
rthumb 10.9827 -30.8174
lclavicle -1.39149e-014 -2.54444e-014
lhumerus -45.4113 -24.739 99.787
lradius 103.932
lwrist -18.1736
lhand -15.1546 3.12419
lfingers 7.12502
lthumb 11.0156 32.8152
rfemur -38.3902 -5.27056 12.7159
rtibia 88.489
rfoot 5.30434 -16.752
rtoes -18.5762
lfemur -8.48183 -5.16733 -30.4284
ltibia 35.9309
lfoot 2.64873 13.5204
ltoes -17.3039
21
root 1.26303 15.8513 18.3451 -171.938 -2.24679 173.483
lowerback 0.994385 -2.84238 -9.01816
upperback 0.790495 -4.10017 -2.94063
thorax 0.660564 -2.19486 1.99337
lowerneck -35.7834 -0.428223 2.74882
upperneck 38.4086 -1.59858 1.61438
head 21.7316 0.666047 0.155957
rclavicle 1.63003e-014 2.8625e-014
rhumerus -71.4091 5.91578 -86.6563
rradius 78.6046
rwrist 7.81162
rhand -15.0105 -0.860027
rfingers 7.12502
rthumb 11.1546 -30.5435
lclavicle 1.63003e-014 2.8625e-014
lhumerus -44.5374 -25.108 99.4705
lradius 104.716
lwrist -18.0424
lhand -15.1884 3.23913
lfingers 7.12502
lthumb 10.983 32.9318
rfemur -40.0216 -5.04842 12.9348
rtibia 86.567
rfoot 4.87647 -17.137
rtoes -18.9754
lfemur -7.05536 -5.3915 -30.347
ltibia 34.5325
lfoot 4.10919 11.6876
ltoes -17.5736
